<svg width="201" height="32" viewBox="0 0 201 32" fill="none" xmlns="http://www.w3.org/2000/svg">
<g clip-path="url(#clip0_92_201)">
<path d="M0.71 0.0499866C1.09 0.229987 1.47 0.419987 1.84 0.599987C3.6 1.44999 5.35 2.30999 7.11 3.15999C9.55 4.33999 11.98 5.52999 14.42 6.70999C16.7 7.81999 18.98 8.92999 21.26 10.03C23 10.88 24.74 11.77 26.54 12.49C25.26 12.23 23.91 12.62 22.73 13.12C21.71 13.56 20.73 14.1 19.72 14.57C18.62 15.08 17.35 15.08 16.24 14.59L6.22 10.14C2.44 8.46999 0 4.67999 0 0.499987C0 0.129987 0.38 -0.110013 0.71 0.0499866Z" fill="url(#paint0_linear_92_201)"/>
<path d="M31.3 17.17L4.3 30.36L1.11 31.92C0.6 32.17 0 31.79 0 31.22V30.13C0 27.08 1.67 24.3 4.3 22.88C4.48 22.78 4.66 22.7 4.84 22.61L19.4 16L24 13.94C24.34 13.79 24.69 13.67 25.05 13.58C25.75 13.4 26.47 13.34 27.19 13.4C27.98 13.47 28.75 13.68 29.48 14.03L31.3 14.91C32.24 15.37 32.24 16.72 31.3 17.17Z" fill="url(#paint1_linear_92_201)"/>
<path d="M48.9498 21.7L47.4698 18.37L42.7298 7.83001C41.7798 5.70001 39.6698 4.32001 37.3398 4.32001H36.5598C36.1398 4.32001 35.8698 4.76001 36.0498 5.13001L46.6298 26.99C46.9498 27.67 47.9198 27.66 48.2498 26.98L48.8798 25.67C49.4798 24.42 49.5098 22.97 48.9498 21.7ZM58.5698 4.32001C55.5798 4.32001 52.8698 6.09001 51.6598 8.83001L48.4698 16.08C48.1198 16.89 48.1198 17.8 48.4798 18.6C48.8198 19.33 49.2098 20.04 49.5198 20.78C49.8898 21.64 50.1598 22.62 49.9798 23.54C50.4898 22.24 51.1398 20.98 51.7398 19.72C52.5398 18.07 53.3298 16.42 54.1198 14.77C54.9698 13 55.8198 11.24 56.6698 9.47001C57.2798 8.20001 57.8898 6.93001 58.4998 5.66001C58.6398 5.39001 58.7698 5.11001 58.8998 4.84001C59.0098 4.60001 58.8398 4.32001 58.5698 4.32001ZM166.6 4.32001V22.84C166.6 25.51 168.77 27.68 171.44 27.68V9.16001C171.44 6.49001 169.27 4.32001 166.6 4.32001ZM154.73 23V9.16001C154.73 6.49001 152.56 4.32001 149.89 4.32001V27.68H164.84V23H154.73ZM148.13 9.00001V4.32001H133.19V27.68H138.02V18.92H146.31V14.27H138.02V9.00001H148.13ZM118.98 4.01001C112.2 4.01001 106.96 9.25001 106.96 16C106.96 22.75 112.17 27.99 118.98 27.99C125.79 27.99 131.07 22.78 131.07 16C131.07 9.22001 125.76 4.01001 118.98 4.01001ZM118.98 23.22C114.96 23.22 111.92 20.14 111.92 16C111.92 11.86 114.9 8.78001 118.98 8.78001C123.06 8.78001 126.08 11.85 126.08 16C126.08 20.15 123 23.22 118.98 23.22ZM105.79 8.97001V4.32001H90.5298V27.68H105.79V23.03H95.3698V17.98H104.56V13.61H95.3698V8.97001H105.79ZM75.4498 4.32001H67.5098V27.68H75.4498C83.1998 27.68 88.3898 23 88.3898 16C88.3898 9.00001 83.1998 4.32001 75.4498 4.32001ZM76.1398 23H72.3398V9.00001H76.1398C80.4398 9.00001 83.4298 11.85 83.4298 16C83.4298 20.15 80.4398 23 76.1398 23ZM59.5898 4.32001V27.68H64.4298V9.16001C64.4298 6.49001 62.2598 4.32001 59.5898 4.32001ZM186.86 19.04L195.15 27.59H193.62C190.9 27.59 188.29 26.5 186.38 24.57L183.97 22.13L183.53 21.74L181.9 23.39C179.86 25.45 178.1 26.82 175.04 27.35C174.33 27.47 173.69 26.92 173.69 26.2C173.69 25.9 173.81 25.6 174.03 25.38L180.66 18.76L180.75 18.69L180.14 18.06L176.64 14.52H176.65C174.7 12.55 173.6 9.89001 173.6 7.12001C173.6 6.56001 174.28 6.28001 174.68 6.68001L183.6 15.71L184.2 15.09L185.23 14.05L191.46 7.81001C193.63 5.63001 196.59 4.41001 199.67 4.41001H200.66L187.6 17.5L187.38 17.72L186.45 18.68L186.86 19.04Z" fill="url(#paint2_linear_92_201)"/>
</g>
<defs>
<linearGradient id="paint0_linear_92_201" x1="13.27" y1="14.96" x2="13.27" y2="-1.3504e-05" gradientUnits="userSpaceOnUse">
<stop stop-color="#3547FF"/>
<stop offset="1" stop-color="#8903FF"/>
</linearGradient>
<linearGradient id="paint1_linear_92_201" x1="-0.94" y1="30" x2="30.06" y2="13.5" gradientUnits="userSpaceOnUse">
<stop stop-color="#8903FF"/>
<stop offset="1" stop-color="#3547FF"/>
</linearGradient>
<linearGradient id="paint2_linear_92_201" x1="25.2798" y1="29.75" x2="208.74" y2="1.8" gradientUnits="userSpaceOnUse">
<stop stop-color="#8903FF"/>
<stop offset="1" stop-color="#3547FF"/>
</linearGradient>
<clipPath id="clip0_92_201">
<rect width="200.66" height="32" fill="white"/>
</clipPath>
</defs>
</svg>
